<?xml version="1.0" encoding="UTF-8" standalone="no"?><!-- Generator: Gravit.io --><svg xmlns="http://www.w3.org/2000/svg" xmlns:xlink="http://www.w3.org/1999/xlink" style="isolation:isolate" viewBox="0 0 500 500" width="500pt" height="500pt"><defs><clipPath id="_clipPath_ePCYYnAIApF4851Coi042TdeOy2W66su"><rect width="500" height="500"/></clipPath></defs><g clip-path="url(#_clipPath_ePCYYnAIApF4851Coi042TdeOy2W66su)"><g><linearGradient id="_lgradient_8" x1="0.6822945890001453" y1="0.7307048134482188" x2="0.22055397362134882" y2="0.3699568274004991" gradientTransform="matrix(87.531,0,0,207.935,96.395,275.057)" gradientUnits="userSpaceOnUse"><stop offset="0%" stop-opacity="0.9" style="stop-color:rgb(98,60,234)"/><stop offset="100%" stop-opacity="1" style="stop-color:rgb(82,54,178)"/></linearGradient><path d=" M 104.895 482.521 C 164.477 470.89 189.788 419.577 182.792 372.702 L 146.95 275.057 C 116.383 289.809 98.215 313.26 97.169 354.057 L 96.489 476.392 C 95.829 481.952 98.65 484.014 104.895 482.521 L 104.895 482.521 Z " fill="url(#_lgradient_8)"/><linearGradient id="_lgradient_9" x1="0.16567144164432834" y1="0.34788806781653303" x2="0.5682122777174068" y2="0.7067998536404305" gradientTransform="matrix(237.044,0,0,236.03,145.507,250.888)" gradientUnits="userSpaceOnUse"><stop offset="0%" stop-opacity="1" style="stop-color:rgb(82,54,178)"/><stop offset="100%" stop-opacity="0.9" style="stop-color:rgb(98,60,234)"/></linearGradient><path d=" M 364.016 485.194 C 267.21 462.952 206.919 425.821 183.174 373.848 L 145.507 277.582 C 160.53 266.282 185.758 258.159 218.375 250.888 L 377.397 470.275 C 388.01 487.911 381.593 488.845 364.016 485.194 L 364.016 485.194 Z " fill="url(#_lgradient_9)"/><linearGradient id="_lgradient_10" x1="0.3658715790869734" y1="0.2986623450991728" x2="0.4295544710502713" y2="0.4873342134674681" gradientTransform="matrix(219.557,0,0,222.323,96,134.456)" gradientUnits="userSpaceOnUse"><stop offset="2.083333333333333%" stop-opacity="1" style="stop-color:rgb(82,54,178)"/><stop offset="100%" stop-opacity="0.9" style="stop-color:rgb(98,60,234)"/></linearGradient><path d=" M 315.486 134.456 C 317.366 186.832 281.712 229.599 220.378 250.814 C 142.7 267.819 102.533 298.709 97.064 356.779 L 96 256.787 C 97.312 240.577 102.552 226.538 111.714 214.662 C 120.877 202.786 133.961 193.073 150.96 185.516 L 315.486 134.456 Z " fill="url(#_lgradient_10)"/><linearGradient id="_lgradient_11" x1="0.43188337011599404" y1="0.35025140044030756" x2="0.5000000000000006" y2="0.5000000000000001" gradientTransform="matrix(298.765,0,0,247.342,96.235,11.689)" gradientUnits="userSpaceOnUse"><stop offset="2.083333333333333%" stop-opacity="1" style="stop-color:rgb(82,54,178)"/><stop offset="100%" stop-opacity="0.9" style="stop-color:rgb(98,60,234)"/></linearGradient><path d=" M 97.068 156.919 L 96.235 259.031 C 98.122 226.371 115.797 202.667 149.203 187.862 L 314.875 135.594 C 348.476 119.26 407.045 26.857 392.811 11.69 C 377.99 11.523 313.192 32.264 248.825 53.991 C 146.783 83.747 96.216 118.075 97.068 156.919 Z " fill="url(#_lgradient_11)"/></g></g></svg>